ffmpeg version 4.2.7-0ubuntu0.1 Copyright (c) 2000-2022 the FFmpeg developers
  built with gcc 9 (Ubuntu 9.4.0-1ubuntu1~20.04.1)
  configuration: --prefix=/usr --extra-version=0ubuntu0.1 --toolchain=hardened --libdir=/usr/lib/x86_64-linux-gnu --incdir=/usr/include/x86_64-linux-gnu --arch=amd64 --enable-gpl --disable-stripping --enable-avresample --disable-filter=resample --enable-avisynth --enable-gnutls --enable-ladspa --enable-libaom --enable-libass --enable-libbluray --enable-libbs2b --enable-libcaca --enable-libcdio --enable-libcodec2 --enable-libflite --enable-libfontconfig --enable-libfreetype --enable-libfribidi --enable-libgme --enable-libgsm --enable-libjack --enable-libmp3lame --enable-libmysofa --enable-libopenjpeg --enable-libopenmpt --enable-libopus --enable-libpulse --enable-librsvg --enable-librubberband --enable-libshine --enable-libsnappy --enable-libsoxr --enable-libspeex --enable-libssh --enable-libtheora --enable-libtwolame --enable-libvidstab --enable-libvorbis --enable-libvpx --enable-libwavpack --enable-libwebp --enable-libx265 --enable-libxml2 --enable-libxvid --enable-libzmq --enable-libzvbi --enable-lv2 --enable-omx --enable-openal --enable-opencl --enable-opengl --enable-sdl2 --enable-libdc1394 --enable-libdrm --enable-libiec61883 --enable-nvenc --enable-chromaprint --enable-frei0r --enable-libx264 --enable-shared
  libavutil      56. 31.100 / 56. 31.100
  libavcodec     58. 54.100 / 58. 54.100
  libavformat    58. 29.100 / 58. 29.100
  libavdevice    58.  8.100 / 58.  8.100
  libavfilter     7. 57.100 /  7. 57.100
  libavresample   4.  0.  0 /  4.  0.  0
  libswscale      5.  5.100 /  5.  5.100
  libswresample   3.  5.100 /  3.  5.100
  libpostproc    55.  5.100 / 55.  5.100
Routing option strict to both codec and muxer layer
[h264 @ 0x55924ba47000] Reinit context to 480x848, pix_fmt: yuv420p
Input #0, mov,mp4,m4a,3gp,3g2,mj2, from '/var/www/html/project/media/video/original/VID-20230110-WA0010.mp4':
  Metadata:
    major_brand     : mp42
    minor_version   : 0
    compatible_brands: mp42isom
  Duration: 00:00:11.19, start: 0.000000, bitrate: 1716 kb/s
    Stream #0:0(und): Video: h264 (Baseline), 1 reference frame (avc1 / 0x31637661), yuv420p(tv, bt709, left), 480x848, 1648 kb/s, 59.96 fps, 59.94 tbr, 600 tbn, 1200 tbc (default)
    Stream #0:1(und): Audio: aac (LC) (mp4a / 0x6134706D), 44100 Hz, stereo, fltp, 71 kb/s (default)
Input #1, png_pipe, from '/var/www/html/project/static/images/templates/logo_vertical.png':
  Duration: N/A, bitrate: N/A
    Stream #1:0: Video: png, 1 reference frame, rgba(pc), 1920x1080 [SAR 2835:2835 DAR 16:9], 25 tbr, 25 tbn, 25 tbc
[Parsed_scale_1 @ 0x55924ba9d340] w:1280 h:720 flags:'bilinear' interl:0
[Parsed_scale_4 @ 0x55924ba91c40] w:-1 h:720 flags:'bilinear' interl:0
[Parsed_scale_6 @ 0x55924ba78f00] w:1280 h:720 flags:'bilinear' interl:0
Stream mapping:
  Stream #0:0 (h264) -> split (graph 0)
  Stream #1:0 (png) -> scale (graph 0)
  overlay (graph 0) -> Stream #0:0 (libx264)
  Stream #0:1 -> #0:1 (aac (native) -> aac (native))
Press [q] to stop, [?] for help
[h264 @ 0x55924bbbc640] Reinit context to 480x848, pix_fmt: yuv420p
[Parsed_scale_1 @ 0x55924ba9ca40] w:1280 h:720 flags:'bilinear' interl:0
[Parsed_scale_4 @ 0x55924c097880] w:-1 h:720 flags:'bilinear' interl:0
[Parsed_scale_6 @ 0x55924c099240] w:1280 h:720 flags:'bilinear' interl:0
[graph 0 input from stream 0:0 @ 0x55924c0961c0] w:480 h:848 pixfmt:yuv420p tb:1/600 fr:60000/1001 sar:0/1 sws_param:flags=2
[graph 0 input from stream 1:0 @ 0x55924c098200] w:1920 h:1080 pixfmt:rgba tb:1/25 fr:25/1 sar:2835/2835 sws_param:flags=2
[Parsed_scale_1 @ 0x55924ba9ca40] w:480 h:848 fmt:yuv420p sar:0/1 -> w:1280 h:720 fmt:yuv420p sar:0/1 flags:0x2
[Parsed_boxblur_2 @ 0x55924c095600] luma_radius:36 luma_power:1 chroma_radius:18 chroma_power:1 alpha_radius:36 alpha_power:1 w:1280 chroma_w:640 h:720 chroma_h:360
[Parsed_setsar_3 @ 0x55924c096ac0] w:1280 h:720 sar:0/1 dar:16/9 -> sar:1/1 dar:16/9
[Parsed_scale_4 @ 0x55924c097880] w:480 h:848 fmt:yuv420p sar:0/1 -> w:408 h:720 fmt:yuva420p sar:0/1 flags:0x2
[Parsed_setsar_5 @ 0x55924c098480] w:408 h:720 sar:0/1 dar:17/30 -> sar:1/1 dar:17/30
[Parsed_overlay_8 @ 0x55924c09a900] main w:1280 h:720 fmt:yuv420p overlay w:408 h:720 fmt:yuva420p
[Parsed_overlay_8 @ 0x55924c09a900] [framesync @ 0x55924c09aa28] Selected 1/600 time base
[Parsed_overlay_8 @ 0x55924c09a900] [framesync @ 0x55924c09aa28] Sync level 2
[Parsed_scale_6 @ 0x55924c099240] w:1920 h:1080 fmt:rgba sar:2835/2835 -> w:1280 h:720 fmt:yuva420p sar:1/1 flags:0x2
[Parsed_setsar_7 @ 0x55924c099d40] w:1280 h:720 sar:1/1 dar:16/9 -> sar:1/1 dar:16/9
[Parsed_overlay_9 @ 0x55924c09b7c0] main w:1280 h:720 fmt:yuv420p overlay w:1280 h:720 fmt:yuva420p
[Parsed_overlay_9 @ 0x55924c09b7c0] [framesync @ 0x55924c09b928] Selected 1/600 time base
[Parsed_overlay_9 @ 0x55924c09b7c0] [framesync @ 0x55924c09b928] Sync level 2
[libx264 @ 0x55924bbbd900] using SAR=1/1
[libx264 @ 0x55924bbbd900] using cpu capabilities: MMX2 SSE2Fast SSSE3 SSE4.2 AVX FMA3 BMI2 AVX2
[libx264 @ 0x55924bbbd900] profile High, level 3.2
[libx264 @ 0x55924bbbd900] 264 - core 155 r2917 0a84d98 - H.264/MPEG-4 AVC codec - Copyleft 2003-2018 - http://www.videolan.org/x264.html - options: cabac=1 ref=1 deblock=1:0:0 analyse=0x3:0x113 me=hex subme=2 psy=1 psy_rd=1.00:0.00 mixed_ref=0 me_range=16 chroma_me=1 trellis=0 8x8dct=1 cqm=0 deadzone=21,11 fast_pskip=1 chroma_qp_offset=0 threads=22 lookahead_threads=5 sliced_threads=0 nr=0 decimate=1 interlaced=0 bluray_compat=0 constrained_intra=0 bframes=3 b_pyramid=2 b_adapt=1 b_bias=0 direct=1 weightb=1 open_gop=0 weightp=1 keyint=250 keyint_min=25 scenecut=40 intra_refresh=0 rc_lookahead=10 rc=crf mbtree=1 crf=18.0 qcomp=0.60 qpmin=0 qpmax=69 qpstep=4 ip_ratio=1.40 aq=1:1.00
[graph_1_in_0_1 @ 0x55925a7ff800] tb:1/44100 samplefmt:fltp samplerate:44100 chlayout:0x3
Output #0, mp4, to '/var/www/html/project/media/video/watermarks/VID-20230110-WA0010.mp4':
  Metadata:
    major_brand     : mp42
    minor_version   : 0
    compatible_brands: mp42isom
    encoder         : Lavf58.29.100
    Stream #0:0: Video: h264 (libx264), 1 reference frame (avc1 / 0x31637661), yuv420p(progressive), 1280x720 [SAR 1:1 DAR 16:9], q=-1--1, 59.94 fps, 60k tbn, 59.94 tbc (default)
    Metadata:
      encoder         : Lavc58.54.100 libx264
    Side data:
      cpb: bitrate max/min/avg: 0/0/0 buffer size: 0 vbv_delay: -1
    Stream #0:1(und): Audio: aac (LC) (mp4a / 0x6134706D), 44100 Hz, stereo, fltp, delay 1024, 128 kb/s (default)
    Metadata:
      encoder         : Lavc58.54.100 aac
[Parsed_overlay_8 @ 0x55924c09a900] [framesync @ 0x55924c09aa28] Sync level 1
[Parsed_overlay_8 @ 0x55924c09a900] [framesync @ 0x55924c09aa28] Sync level 0
[Parsed_overlay_9 @ 0x55924c09b7c0] [framesync @ 0x55924c09b928] Sync level 0
No more output streams to write to, finishing.
frame=  668 fps= 37 q=-1.0 Lsize=    3528kB time=00:00:11.19 bitrate=2582.4kbits/s speed=0.619x    
[AVIOContext @ 0x55924ba45280] Statistics: 0 seeks, 36 writeouts
video:3332kB audio:177kB subtitle:0kB other streams:0kB global headers:0kB muxing overhead: 0.547342%
Input file #0 (/var/www/html/project/media/video/original/VID-20230110-WA0010.mp4):
  Input stream #0:0 (video): 668 packets read (2295789 bytes); 668 frames decoded; 
  Input stream #0:1 (audio): 482 packets read (99921 bytes); 482 frames decoded (493568 samples); 
  Total: 1150 packets (2395710 bytes) demuxed
Input file #1 (/var/www/html/project/static/images/templates/logo_vertical.png):
  Input stream #1:0 (video): 1 packets read (93903 bytes); 1 frames decoded; 
  Total: 1 packets (93903 bytes) demuxed
Output file #0 (/var/www/html/project/media/video/watermarks/VID-20230110-WA0010.mp4):
  Output stream #0:0 (video): 668 frames encoded; 668 packets muxed (3411483 bytes); 
  Output stream #0:1 (audio): 482 frames encoded (493568 samples); 483 packets muxed (181703 bytes); 
  Total: 1151 packets (3593186 bytes) muxed
[AVIOContext @ 0x55924bbbdd80] Statistics: 2 seeks, 17 writeouts
[libx264 @ 0x55924bbbd900] frame I:3     Avg QP:18.46  size: 52763
[libx264 @ 0x55924bbbd900] frame P:168   Avg QP:20.54  size: 14459
[libx264 @ 0x55924bbbd900] frame B:497   Avg QP:23.53  size:  1657
[libx264 @ 0x55924bbbd900] consecutive B-frames:  0.7%  0.0%  0.4% 98.8%
[libx264 @ 0x55924bbbd900] mb I  I16..4: 22.7% 47.1% 30.2%
[libx264 @ 0x55924bbbd900] mb P  I16..4: 10.2% 13.5%  1.1%  P16..4: 24.8% 12.0%  5.9%  0.0%  0.0%    skip:32.5%
[libx264 @ 0x55924bbbd900] mb B  I16..4:  0.6%  0.2%  0.0%  B16..8:  8.2%  2.5%  0.3%  direct: 3.3%  skip:85.0%  L0:41.7% L1:43.9% BI:14.4%
[libx264 @ 0x55924bbbd900] 8x8 transform intra:51.9% inter:28.1%
[libx264 @ 0x55924bbbd900] coded y,uvDC,uvAC intra: 32.1% 37.5% 4.1% inter: 4.3% 6.2% 0.4%
[libx264 @ 0x55924bbbd900] i16 v,h,dc,p: 20% 36%  9% 35%
[libx264 @ 0x55924bbbd900] i8 v,h,dc,ddl,ddr,vr,hd,vl,hu: 14% 47% 15%  3%  4%  3%  6%  3%  4%
[libx264 @ 0x55924bbbd900] i4 v,h,dc,ddl,ddr,vr,hd,vl,hu: 25% 26% 13%  5%  6%  6%  7%  6%  6%
[libx264 @ 0x55924bbbd900] i8c dc,h,v,p: 47% 35% 11%  7%
[libx264 @ 0x55924bbbd900] Weighted P-Frames: Y:4.8% UV:1.2%
[libx264 @ 0x55924bbbd900] kb/s:2448.42
[aac @ 0x55924ba722c0] Qavg: 541.916
[AVIOContext @ 0x55924ba4e240] Statistics: 2401959 bytes read, 0 seeks
[AVIOContext @ 0x55924ba57580] Statistics: 93903 bytes read, 0 seeks
